<svg width="300" height="100"  fill="none" xmlns="http://www.w3.org/2000/svg">

<path d="M22.0725 82C20.5365 82 19.3525 81.584 18.5205 80.752C17.6885 79.92 17.2725 78.736 17.2725 77.2V19.12C17.2725 17.584 17.6885 16.4 18.5205 15.568C19.3525 14.736 20.5365 14.32 22.0725 14.32H57.4005C58.6165 14.32 59.5445 14.64 60.1845 15.28C60.8885 15.856 61.2405 16.72 61.2405 17.872C61.2405 19.088 60.8885 20.016 60.1845 20.656C59.5445 21.296 58.6165 21.616 57.4005 21.616H25.9125V43.984H55.3845C56.6005 43.984 57.5285 44.304 58.1685 44.944C58.8085 45.584 59.1285 46.48 59.1285 47.632C59.1285 48.848 58.8085 49.776 58.1685 50.416C57.5285 50.992 56.6005 51.28 55.3845 51.28H25.9125V74.704H57.4005C58.6165 74.704 59.5445 75.024 60.1845 75.664C60.8885 76.24 61.2405 77.136 61.2405 78.352C61.2405 79.568 60.8885 80.496 60.1845 81.136C59.5445 81.712 58.6165 82 57.4005 82H22.0725ZM87.3668 82.672C86.1508 82.672 85.0948 82.352 84.1988 81.712C83.3028 81.072 82.5348 80.048 81.8948 78.64L65.5748 40.624C65.1268 39.536 64.9668 38.544 65.0948 37.648C65.2228 36.752 65.6388 36.016 66.3428 35.44C67.1108 34.864 68.1348 34.576 69.4148 34.576C70.5028 34.576 71.3668 34.832 72.0068 35.344C72.6468 35.856 73.2548 36.752 73.8308 38.032L88.9028 75.184H86.2148L101.671 38.032C102.183 36.752 102.759 35.856 103.399 35.344C104.103 34.832 105.063 34.576 106.279 34.576C107.367 34.576 108.199 34.864 108.775 35.44C109.415 36.016 109.799 36.752 109.927 37.648C110.055 38.544 109.863 39.504 109.351 40.528L92.9348 78.64C92.3588 80.048 91.5908 81.072 90.6308 81.712C89.7348 82.352 88.6468 82.672 87.3668 82.672ZM138.224 82.864C133.168 82.864 128.816 81.904 125.168 79.984C121.584 78 118.8 75.216 116.816 71.632C114.832 67.984 113.84 63.696 113.84 58.768C113.84 53.904 114.8 49.648 116.72 46C118.704 42.352 121.392 39.504 124.784 37.456C128.24 35.408 132.176 34.384 136.592 34.384C139.728 34.384 142.544 34.928 145.04 36.016C147.6 37.04 149.776 38.544 151.568 40.528C153.36 42.512 154.704 44.944 155.6 47.824C156.56 50.64 157.04 53.84 157.04 57.424C157.04 58.448 156.72 59.248 156.08 59.824C155.504 60.336 154.64 60.592 153.488 60.592H120.656V55.024H151.28L149.648 56.368C149.648 53.04 149.136 50.224 148.112 47.92C147.152 45.552 145.712 43.76 143.792 42.544C141.936 41.328 139.6 40.72 136.784 40.72C133.712 40.72 131.088 41.456 128.912 42.928C126.736 44.336 125.072 46.352 123.92 48.976C122.768 51.536 122.192 54.512 122.192 57.904V58.48C122.192 64.24 123.568 68.592 126.32 71.536C129.072 74.48 133.04 75.952 138.224 75.952C140.272 75.952 142.352 75.696 144.464 75.184C146.64 74.672 148.72 73.744 150.704 72.4C151.664 71.824 152.528 71.568 153.296 71.632C154.128 71.632 154.8 71.888 155.312 72.4C155.824 72.848 156.144 73.424 156.272 74.128C156.4 74.768 156.304 75.472 155.984 76.24C155.664 77.008 155.056 77.68 154.16 78.256C152.048 79.728 149.52 80.88 146.576 81.712C143.696 82.48 140.912 82.864 138.224 82.864ZM170.306 82.672C168.962 82.672 167.906 82.288 167.138 81.52C166.37 80.752 165.986 79.632 165.986 78.16V38.992C165.986 37.52 166.37 36.432 167.138 35.728C167.906 34.96 168.962 34.576 170.306 34.576C171.65 34.576 172.674 34.96 173.378 35.728C174.146 36.432 174.53 37.52 174.53 38.992V46.864L173.474 45.424C174.818 41.776 176.994 39.024 180.002 37.168C183.074 35.312 186.562 34.384 190.466 34.384C194.242 34.384 197.346 35.056 199.778 36.4C202.21 37.744 204.034 39.792 205.25 42.544C206.466 45.296 207.074 48.784 207.074 53.008V78.16C207.074 79.632 206.69 80.752 205.922 81.52C205.218 82.288 204.162 82.672 202.754 82.672C201.346 82.672 200.258 82.288 199.49 81.52C198.722 80.752 198.338 79.632 198.338 78.16V53.488C198.338 49.328 197.538 46.288 195.938 44.368C194.338 42.448 191.778 41.488 188.258 41.488C184.162 41.488 180.866 42.768 178.37 45.328C175.938 47.824 174.722 51.216 174.722 55.504V78.16C174.722 81.168 173.25 82.672 170.306 82.672ZM238.395 82.864C234.619 82.864 231.451 82.192 228.891 80.848C226.395 79.504 224.507 77.552 223.227 74.992C222.011 72.432 221.403 69.296 221.403 65.584V41.968H215.259C214.107 41.968 213.211 41.68 212.571 41.104C211.931 40.464 211.611 39.632 211.611 38.608C211.611 37.52 211.931 36.688 212.571 36.112C213.211 35.536 214.107 35.248 215.259 35.248H221.403V24.784C221.403 23.312 221.787 22.224 222.555 21.52C223.323 20.752 224.411 20.368 225.819 20.368C227.227 20.368 228.283 20.752 228.987 21.52C229.755 22.224 230.139 23.312 230.139 24.784V35.248H241.755C242.971 35.248 243.899 35.536 244.539 36.112C245.179 36.688 245.499 37.52 245.499 38.608C245.499 39.632 245.179 40.464 244.539 41.104C243.899 41.68 242.971 41.968 241.755 41.968H230.139V64.816C230.139 68.336 230.875 70.992 232.347 72.784C233.819 74.576 236.251 75.472 239.643 75.472C240.859 75.472 241.883 75.376 242.715 75.184C243.547 74.928 244.283 74.8 244.923 74.8C245.499 74.736 245.979 74.928 246.363 75.376C246.811 75.824 247.035 76.656 247.035 77.872C247.035 78.768 246.875 79.6 246.555 80.368C246.299 81.072 245.755 81.552 244.923 81.808C244.155 82.064 243.131 82.288 241.851 82.48C240.571 82.736 239.419 82.864 238.395 82.864ZM267.617 82.864C264.737 82.864 261.825 82.544 258.881 81.904C256.001 81.2 253.281 80.016 250.721 78.352C250.017 77.904 249.505 77.36 249.185 76.72C248.929 76.016 248.833 75.344 248.897 74.704C249.025 74 249.313 73.392 249.761 72.88C250.209 72.368 250.753 72.08 251.393 72.016C252.097 71.888 252.833 72.048 253.601 72.496C256.097 73.904 258.497 74.896 260.801 75.472C263.169 76.048 265.505 76.336 267.809 76.336C271.329 76.336 273.985 75.696 275.777 74.416C277.569 73.136 278.465 71.44 278.465 69.328C278.465 67.536 277.857 66.16 276.641 65.2C275.489 64.176 273.665 63.408 271.169 62.896L262.241 61.072C258.273 60.176 255.265 58.704 253.217 56.656C251.233 54.544 250.241 51.856 250.241 48.592C250.241 45.712 251.009 43.216 252.545 41.104C254.145 38.928 256.353 37.264 259.169 36.112C261.985 34.96 265.217 34.384 268.865 34.384C271.681 34.384 274.337 34.768 276.833 35.536C279.393 36.24 281.697 37.328 283.745 38.8C284.513 39.248 284.993 39.824 285.185 40.528C285.441 41.168 285.473 41.84 285.281 42.544C285.153 43.184 284.865 43.728 284.417 44.176C283.969 44.624 283.393 44.912 282.689 45.04C281.985 45.104 281.217 44.912 280.385 44.464C278.529 43.184 276.609 42.288 274.625 41.776C272.705 41.2 270.785 40.912 268.865 40.912C265.409 40.912 262.785 41.584 260.993 42.928C259.265 44.272 258.401 46.032 258.401 48.208C258.401 49.872 258.913 51.248 259.937 52.336C261.025 53.424 262.721 54.224 265.025 54.736L273.953 56.56C278.113 57.456 281.249 58.896 283.361 60.88C285.473 62.8 286.529 65.424 286.529 68.752C286.529 73.104 284.801 76.56 281.345 79.12C277.953 81.616 273.377 82.864 267.617 82.864Z" fill="#ED7D31"/>

</svg>
