<svg width="100" height="100" fill="none" xmlns="http://www.w3.org/2000/svg">

<path d="M26.3153 39.7864C20.2457 45.6855 16.8691 53.1434 15.8445 61.1514C15.4495 68.4286 16.871 71.4024 22.8941 74.214C31.3581 77.4044 41.8009 78.087 50.074 74.7895C60.1235 70.6309 67.7578 61.1705 70.5141 50.7192C68.5272 48.4519 66.4087 46.4217 64.2376 44.9697C61.4016 56.8592 54.2601 67.4005 41.6289 69.591C34.7225 70.6718 26.4176 69.2083 22.7362 65.8159C22.1333 59.7978 24.2344 54.9751 26.9469 50C26.4074 46.956 26.0258 43.7494 26.3153 39.7864Z" fill="#5B9BD5"/>
<path d="M40.2105 31.8956C39.421 34.6428 38.6579 37.4148 38.5131 40.0542C49.5777 34.7443 63.7914 37.7575 71.1095 47.7084C74.8707 52.7987 78.1242 62.187 76.8391 65.5838C73.7709 68.8981 66.9625 69.8921 61.7057 69.9556C59.6793 71.63 56.3518 74.081 53.3912 75.8459C61.2575 77.9171 70.3085 77.0646 77.2513 73.9091C83.5188 70.6541 84.3664 67.3079 83.949 60.9479C82.738 51.977 79.3392 43.9458 71.1224 37.5216C61.456 29.964 50.5399 29.5899 40.2105 31.8956Z" fill="#70AD47"/>
<path d="M42.3145 14.4743C34.3978 20.4975 30.029 27.2669 28.6312 37.7015C26.9869 49.976 31.7324 59.9628 38.9129 67.2134C41.9451 66.7081 44.6316 65.9319 47.1711 64.8911C41.3557 60.0159 35.1819 51.7573 35.5102 41.5856C35.8543 30.9247 41.7102 18.6214 49.8949 18.3675C52.4028 18.2897 58.6588 24.5346 61.2374 29.6513C64.0401 30.6801 67.2718 32.4302 70.4693 34.3351C68.1521 26.1049 63.7749 18.9566 57.6267 14.5774C52.152 10.4359 47.7054 10.1288 42.3145 14.4743Z" fill="#ED7D31"/>
<circle cx="50" cy="50" r="46.25" stroke-width="7.5" stroke="#1F3F5F"/>

</svg>
