<svg width="525" height="120" viewBox="0 0 525 120" fill="none" xmlns="http://www.w3.org/2000/svg">
<rect width="820" height="469" transform="translate(-200 -147)" fill="white"/>
<path d="M134.272 92.672C132.8 92.672 131.648 92.256 130.816 91.424C129.984 90.592 129.568 89.408 129.568 87.872V29.12C129.568 27.584 129.984 26.4 130.816 25.568C131.648 24.736 132.832 24.32 134.368 24.32H168.832C170.112 24.32 171.072 24.64 171.712 25.28C172.352 25.856 172.672 26.72 172.672 27.872C172.672 29.088 172.352 30.016 171.712 30.656C171.072 31.296 170.112 31.616 168.832 31.616H138.496V54.272H166.912C168.128 54.272 169.056 54.592 169.696 55.232C170.336 55.872 170.656 56.736 170.656 57.824C170.656 59.04 170.336 59.968 169.696 60.608C169.056 61.248 168.128 61.568 166.912 61.568H138.496V87.872C138.496 91.072 137.088 92.672 134.272 92.672ZM196.309 92.864C191.509 92.864 187.861 91.456 185.365 88.64C182.869 85.76 181.621 81.632 181.621 76.256V28.064C181.621 26.592 182.005 25.504 182.773 24.8C183.541 24.032 184.597 23.648 185.941 23.648C187.349 23.648 188.437 24.032 189.205 24.8C189.973 25.504 190.357 26.592 190.357 28.064V75.584C190.357 78.912 191.029 81.408 192.373 83.072C193.781 84.672 195.765 85.472 198.325 85.472C198.901 85.472 199.413 85.472 199.861 85.472C200.309 85.408 200.757 85.344 201.205 85.28C201.909 85.216 202.421 85.408 202.741 85.856C203.061 86.304 203.221 87.2 203.221 88.544C203.221 89.76 202.933 90.72 202.357 91.424C201.845 92.064 200.981 92.48 199.765 92.672C199.189 92.736 198.613 92.768 198.037 92.768C197.461 92.832 196.885 92.864 196.309 92.864ZM229.707 92.864C224.651 92.864 220.299 91.904 216.651 89.984C213.067 88 210.283 85.216 208.299 81.632C206.315 77.984 205.323 73.696 205.323 68.768C205.323 63.904 206.283 59.648 208.203 56C210.187 52.352 212.875 49.504 216.267 47.456C219.723 45.408 223.659 44.384 228.075 44.384C231.211 44.384 234.027 44.928 236.523 46.016C239.083 47.04 241.259 48.544 243.051 50.528C244.843 52.512 246.187 54.944 247.083 57.824C248.043 60.64 248.523 63.84 248.523 67.424C248.523 68.448 248.203 69.248 247.563 69.824C246.987 70.336 246.123 70.592 244.971 70.592H212.139V65.024H242.763L241.131 66.368C241.131 63.04 240.619 60.224 239.595 57.92C238.635 55.552 237.195 53.76 235.275 52.544C233.419 51.328 231.083 50.72 228.267 50.72C225.195 50.72 222.571 51.456 220.395 52.928C218.219 54.336 216.555 56.352 215.403 58.976C214.251 61.536 213.675 64.512 213.675 67.904V68.48C213.675 74.24 215.051 78.592 217.803 81.536C220.555 84.48 224.523 85.952 229.707 85.952C231.755 85.952 233.835 85.696 235.947 85.184C238.123 84.672 240.203 83.744 242.187 82.4C243.147 81.824 244.011 81.568 244.779 81.632C245.611 81.632 246.283 81.888 246.795 82.4C247.307 82.848 247.627 83.424 247.755 84.128C247.883 84.768 247.787 85.472 247.467 86.24C247.147 87.008 246.539 87.68 245.643 88.256C243.531 89.728 241.003 90.88 238.059 91.712C235.179 92.48 232.395 92.864 229.707 92.864ZM258.053 92.576C257.093 92.576 256.261 92.288 255.557 91.712C254.853 91.136 254.469 90.368 254.405 89.408C254.405 88.448 254.821 87.424 255.653 86.336L272.261 65.696V70.016L256.709 50.816C255.813 49.728 255.397 48.704 255.461 47.744C255.525 46.784 255.877 46.016 256.517 45.44C257.221 44.864 258.085 44.576 259.109 44.576C260.197 44.576 261.093 44.768 261.797 45.152C262.565 45.536 263.269 46.144 263.909 46.976L277.157 63.776H274.085L287.333 46.976C287.973 46.144 288.645 45.536 289.349 45.152C290.117 44.768 291.013 44.576 292.037 44.576C293.061 44.576 293.893 44.864 294.533 45.44C295.237 46.016 295.589 46.784 295.589 47.744C295.653 48.704 295.269 49.728 294.437 50.816L278.981 69.824V65.984L295.493 86.336C296.389 87.36 296.805 88.352 296.741 89.312C296.677 90.272 296.293 91.072 295.589 91.712C294.949 92.288 294.117 92.576 293.093 92.576C292.005 92.576 291.077 92.384 290.309 92C289.605 91.616 288.933 91.008 288.293 90.176L273.989 72.224H276.965L262.853 90.176C262.213 90.944 261.509 91.552 260.741 92C260.037 92.384 259.141 92.576 258.053 92.576ZM311.455 92.672C310.175 92.672 309.183 92.288 308.479 91.52C307.775 90.752 307.423 89.728 307.423 88.448V27.872C307.423 26.528 307.775 25.504 308.479 24.8C309.247 24.032 310.271 23.648 311.551 23.648C312.703 23.648 313.599 23.872 314.239 24.32C314.943 24.768 315.583 25.536 316.159 26.624L341.887 74.912H338.911L364.639 26.624C365.215 25.536 365.823 24.768 366.463 24.32C367.103 23.872 367.999 23.648 369.151 23.648C370.431 23.648 371.423 24.032 372.127 24.8C372.831 25.504 373.183 26.528 373.183 27.872V88.448C373.183 89.728 372.831 90.752 372.127 91.52C371.487 92.288 370.495 92.672 369.151 92.672C367.807 92.672 366.783 92.288 366.079 91.52C365.439 90.752 365.119 89.728 365.119 88.448V36.704H367.231L344.191 79.808C343.679 80.64 343.135 81.28 342.559 81.728C342.047 82.112 341.311 82.304 340.351 82.304C339.455 82.304 338.687 82.08 338.047 81.632C337.471 81.184 336.959 80.576 336.511 79.808L313.183 36.608H315.487V88.448C315.487 89.728 315.135 90.752 314.431 91.52C313.791 92.288 312.799 92.672 311.455 92.672ZM408.165 92.864C403.109 92.864 398.757 91.904 395.109 89.984C391.525 88 388.741 85.216 386.757 81.632C384.773 77.984 383.781 73.696 383.781 68.768C383.781 63.904 384.741 59.648 386.661 56C388.645 52.352 391.333 49.504 394.725 47.456C398.181 45.408 402.117 44.384 406.533 44.384C409.669 44.384 412.485 44.928 414.981 46.016C417.541 47.04 419.717 48.544 421.509 50.528C423.301 52.512 424.645 54.944 425.541 57.824C426.501 60.64 426.981 63.84 426.981 67.424C426.981 68.448 426.661 69.248 426.021 69.824C425.445 70.336 424.581 70.592 423.429 70.592H390.597V65.024H421.221L419.589 66.368C419.589 63.04 419.077 60.224 418.053 57.92C417.093 55.552 415.653 53.76 413.733 52.544C411.877 51.328 409.541 50.72 406.725 50.72C403.653 50.72 401.029 51.456 398.853 52.928C396.677 54.336 395.013 56.352 393.861 58.976C392.709 61.536 392.133 64.512 392.133 67.904V68.48C392.133 74.24 393.509 78.592 396.261 81.536C399.013 84.48 402.981 85.952 408.165 85.952C410.213 85.952 412.293 85.696 414.405 85.184C416.581 84.672 418.661 83.744 420.645 82.4C421.605 81.824 422.469 81.568 423.237 81.632C424.069 81.632 424.741 81.888 425.253 82.4C425.765 82.848 426.085 83.424 426.213 84.128C426.341 84.768 426.245 85.472 425.925 86.24C425.605 87.008 424.997 87.68 424.101 88.256C421.989 89.728 419.461 90.88 416.517 91.712C413.637 92.48 410.853 92.864 408.165 92.864ZM457.527 92.864C452.471 92.864 448.119 91.904 444.471 89.984C440.887 88 438.103 85.216 436.119 81.632C434.135 77.984 433.143 73.696 433.143 68.768C433.143 63.904 434.103 59.648 436.023 56C438.007 52.352 440.695 49.504 444.087 47.456C447.543 45.408 451.479 44.384 455.895 44.384C459.031 44.384 461.847 44.928 464.343 46.016C466.903 47.04 469.079 48.544 470.871 50.528C472.663 52.512 474.007 54.944 474.903 57.824C475.863 60.64 476.343 63.84 476.343 67.424C476.343 68.448 476.023 69.248 475.383 69.824C474.807 70.336 473.943 70.592 472.791 70.592H439.959V65.024H470.583L468.951 66.368C468.951 63.04 468.439 60.224 467.415 57.92C466.455 55.552 465.015 53.76 463.095 52.544C461.239 51.328 458.903 50.72 456.087 50.72C453.015 50.72 450.391 51.456 448.215 52.928C446.039 54.336 444.375 56.352 443.223 58.976C442.071 61.536 441.495 64.512 441.495 67.904V68.48C441.495 74.24 442.871 78.592 445.623 81.536C448.375 84.48 452.343 85.952 457.527 85.952C459.575 85.952 461.655 85.696 463.767 85.184C465.943 84.672 468.023 83.744 470.007 82.4C470.967 81.824 471.831 81.568 472.599 81.632C473.431 81.632 474.103 81.888 474.615 82.4C475.127 82.848 475.447 83.424 475.575 84.128C475.703 84.768 475.607 85.472 475.287 86.24C474.967 87.008 474.359 87.68 473.463 88.256C471.351 89.728 468.823 90.88 465.879 91.712C462.999 92.48 460.215 92.864 457.527 92.864ZM504.586 92.864C500.81 92.864 497.642 92.192 495.082 90.848C492.586 89.504 490.698 87.552 489.418 84.992C488.202 82.432 487.594 79.296 487.594 75.584V51.968H481.45C480.298 51.968 479.402 51.68 478.762 51.104C478.122 50.464 477.802 49.632 477.802 48.608C477.802 47.52 478.122 46.688 478.762 46.112C479.402 45.536 480.298 45.248 481.45 45.248H487.594V34.784C487.594 33.312 487.978 32.224 488.746 31.52C489.514 30.752 490.602 30.368 492.01 30.368C493.418 30.368 494.474 30.752 495.178 31.52C495.946 32.224 496.33 33.312 496.33 34.784V45.248H507.946C509.162 45.248 510.09 45.536 510.73 46.112C511.37 46.688 511.69 47.52 511.69 48.608C511.69 49.632 511.37 50.464 510.73 51.104C510.09 51.68 509.162 51.968 507.946 51.968H496.33V74.816C496.33 78.336 497.066 80.992 498.538 82.784C500.01 84.576 502.442 85.472 505.834 85.472C507.05 85.472 508.074 85.376 508.906 85.184C509.738 84.928 510.474 84.8 511.114 84.8C511.69 84.736 512.17 84.928 512.554 85.376C513.002 85.824 513.226 86.656 513.226 87.872C513.226 88.768 513.066 89.6 512.746 90.368C512.49 91.072 511.946 91.552 511.114 91.808C510.346 92.064 509.322 92.288 508.042 92.48C506.762 92.736 505.61 92.864 504.586 92.864Z" fill="#1F3F5F"/>
<path fill-rule="evenodd" clip-rule="evenodd" d="M35.3153 49.7864C29.2457 55.6855 25.8691 63.1434 24.8445 71.1514C24.4495 78.4286 25.871 81.4024 31.8941 84.214C40.3581 87.4044 50.8009 88.087 59.074 84.7895C69.1235 80.6309 76.7578 71.1705 79.5141 60.7192C77.5272 58.4519 75.4087 56.4217 73.2376 54.9697C70.4016 66.8592 63.2601 77.4005 50.6289 79.591C43.7225 80.6718 35.4176 79.2083 31.7362 75.8159C31.1333 69.7978 33.2344 64.9751 35.9469 60C35.4074 56.956 35.0258 53.7494 35.3153 49.7864Z" fill="#5B9BD5"/>
<path fill-rule="evenodd" clip-rule="evenodd" d="M49.2105 41.8956C48.421 44.6428 47.6579 47.4148 47.5131 50.0542C58.5777 44.7443 72.7914 47.7575 80.1095 57.7084C83.8707 62.7987 87.1242 72.187 85.8391 75.5838C82.7709 78.8981 75.9625 79.8921 70.7057 79.9556C68.6793 81.63 65.3518 84.081 62.3912 85.8459C70.2575 87.9171 79.3085 87.0646 86.2513 83.9091C92.5188 80.6541 93.3664 77.3079 92.949 70.9479C91.738 61.977 88.3392 53.9458 80.1224 47.5216C70.456 39.964 59.5399 39.5899 49.2105 41.8956Z" fill="#70AD47"/>
<path fill-rule="evenodd" clip-rule="evenodd" d="M51.3145 24.4743C43.3978 30.4975 39.029 37.2669 37.6312 47.7015C35.9869 59.976 40.7324 69.9629 47.9129 77.2134C50.9451 76.7081 53.6316 75.9319 56.1711 74.8911C50.3557 70.0159 44.1819 61.7573 44.5102 51.5856C44.8543 40.9248 50.7102 28.6214 58.8949 28.3675C61.4028 28.2897 67.6588 34.5346 70.2374 39.6513C73.0401 40.6801 76.2718 42.4302 79.4693 44.3351C77.1521 36.1049 72.7749 28.9566 66.6267 24.5774C61.152 20.4359 56.7054 20.1289 51.3145 24.4743Z" fill="#ED7D31"/>
<path fill-rule="evenodd" clip-rule="evenodd" d="M58.8552 10C50.3944 10.0105 41.8283 12.1659 33.9992 16.69C10.1168 30.4779 1.90591 61.1238 15.6828 85.0051C29.4727 108.886 60.1185 117.097 84.0008 103.31C107.883 89.522 116.094 58.8756 102.317 34.9944C93.0538 18.9494 76.1717 9.97844 58.8552 10ZM58.8952 17.4002C73.6325 17.3657 87.9619 25.0059 95.8701 38.7128C107.647 59.1139 100.686 85.0899 80.2907 96.8686C59.8821 108.647 33.9074 101.689 22.1307 81.288C10.354 60.8871 17.3148 34.9071 37.7103 23.1287C44.4079 19.2639 51.6975 17.417 58.8952 17.4002Z" fill="#1F3F5F"/>
</svg>
